<svg xmlns="http://www.w3.org/2000/svg" viewBox="0 0 32 32" fill="none">
  <defs>
    <linearGradient id="g" x1="0" y1="0" x2="32" y2="32" gradientUnits="userSpaceOnUse">
      <stop offset="0%" stop-color="#4f46e5"/>
      <stop offset="100%" stop-color="#7c3aed"/>
    </linearGradient>
  </defs>
  <rect width="32" height="32" rx="8" fill="url(#g)"/>
  <path d="M8 10a2 2 0 0 1 2-2h12a2 2 0 0 1 2 2v12a2 2 0 0 1-2 2H10a2 2 0 0 1-2-2V10z" fill="white" opacity="0.15"/>
  <path d="M10 9h12a1 1 0 0 1 1 1v12a1 1 0 0 1-1 1H10a1 1 0 0 1-1-1V10a1 1 0 0 1 1-1z" stroke="white" stroke-width="1" fill="none" opacity="0.3"/>
  <text x="16" y="20.5" text-anchor="middle" font-family="Inter,system-ui,sans-serif" font-weight="800" font-size="12" fill="white">A</text>
</svg>
